<?xml version="1.0" standalone="no"?><!DOCTYPE svg PUBLIC "-//W3C//DTD SVG 1.1//EN" "http://www.w3.org/Graphics/SVG/1.1/DTD/svg11.dtd"><svg t="1752862154929" class="icon" viewBox="0 0 1024 1024" version="1.1" xmlns="http://www.w3.org/2000/svg" p-id="9732" xmlns:xlink="http://www.w3.org/1999/xlink" width="32" height="32"><path d="M227.1 396.6c1.4 18.1 3.4 36.3 4.1 54.5 1.3 33.8-12.1 60.7-39.6 80.4-21.2 15.2-44.4 26.2-69.7 32.2-29.6 6.9-54.3-17.4-46.6-46.9 4.4-16.8 10-33.9 18.8-48.7 21.8-36.7 35.1-76.4 46-117.2 2-7.6 4.7-15.2 8.1-22.3 5.9-12.3 19.4-18.7 32.3-14.8 9.3 2.8 18.4 6.8 27.1 11.4 13.8 7.2 27.2 15.4 40.8 23.2 8.3-8.9 16.3-18.3 24.9-26.9 30.3-30.1 67.7-49.2 105.8-66.8 59.7-27.6 121.1-51 185.7-64.4 29.9-6.2 60.5-10.2 91-12.5 36.4-2.7 73-4.1 109.4-3.2 47.3 1.1 93.9 7.4 137.1 29.1 23.3 11.7 42.8 27.9 47 54.5 2.9 18.6 1.8 38.3-0.3 57.2-3.5 32.1-16.6 61.7-29.4 90.9-3.4 7.7-12.3 13.9-20 18.4-19.5 11.4-41.3 17.3-63.4 21.5-62.3 11.9-123.4 6.6-183-14.8-35.4-12.7-63.9-35.8-89.9-62.3-2.7-2.7-4.9-6.4-8.2-8-3.5-1.7-9.1-3.1-11.6-1.4-2.6 1.8-4.1 7.7-3.4 11.2 0.9 4.2 4.1 8.4 7.2 11.7 37.7 40.8 83.6 68.1 137.7 80.6 64.6 14.9 128.9 14.1 192.3-6.9 3.6-1.2 7.2-2.6 10.7-4.2 3.4-1.5 6.8-3.4 11.5-4.2-7 10.2-13.6 20.6-20.9 30.5-49.2 66-112.3 112.4-191.9 135.6-50.8 14.8-101.6 12.7-152.1 0.4-84.4-20.6-161.9-56-228.7-112.6-20.8-17.6-40.4-36.6-54.1-60.5-5.3-9.2-9.8-19.2-12.3-29.3-2.1-8.1-5.4-13.3-12.4-15.4zM841.5 195c-9.8 0.9-19.7 1.3-29.4 2.8-15 2.4-29.3 7.3-41.2 17.1-10.5 8.6-9.3 21 2.4 27.6 4.7 2.6 10 4.5 15.2 5.9 23.7 6.5 47.9 4.8 71.9 2.1 12.3-1.4 24.5-5.3 36.1-9.8 8-3.1 14-9.9 13.6-19.7-0.4-9.3-8-12.7-14.8-15.9-17-7.8-35.2-10-53.8-10.1zM559.8 304.5c14.2 0 25.3-10 25.3-22.6-0.1-12.5-11.7-22.9-25.4-22.8-14.3 0.1-25 9.9-25.1 22.8 0 12.6 11 22.5 25.2 22.6zM669.9 849.2c-6.6 0-12.9 0.4-19.1-0.2-1.7-0.2-4-3.1-4.5-5.2-4.6-18-8.5-36.3-13.5-54.2-1.9-7-5.5-13.8-9.6-19.9-6.2-9.3-16.6-10.5-23.6-1.8-6.8 8.4-12.8 17.9-17 27.9-6.1 14.6-10.5 29.9-14.8 45.2-1.8 6.3-4 9.6-11 8.5-3.9-0.6-8.1-0.1-13-0.1 1-26.2 1.9-51.6 2.9-79.3-6.2 3.1-10.9 4.6-14.5 7.4-8.3 6.7-16.5 13.6-24 21.2-13.6 13.9-26.8 28.3-40 42.7-8.3 9-11.2 9.9-25.5 6.6 16.9-28.7 33.7-57.1 51-86.2-16.6-4.8-31.1-11.4-37.3-28.4-3.9-10.6-3.3-21.1 1-32 1 3.7 1.8 7.5 2.9 11.2 5.6 19.1 22.4 29 41.3 23.3 4.9-1.5 10.3-5.6 13-9.9 16.6-26.8 32.6-54 48.4-81.2 2.9-5 5.8-5.9 11.2-5 26 4.1 52.1 8 78.3 1.1 5.7-1.5 11.2-3.9 17.3-6.1 0.1 71.1 0.1 142.1 0.1 214.4z" p-id="9733" fill="#8a8a8a"></path></svg>