<?xml version="1.0" standalone="no"?><!DOCTYPE svg PUBLIC "-//W3C//DTD SVG 1.1//EN" "http://www.w3.org/Graphics/SVG/1.1/DTD/svg11.dtd"><svg t="1752862117606" class="icon" viewBox="0 0 1024 1024" version="1.1" xmlns="http://www.w3.org/2000/svg" p-id="8424" xmlns:xlink="http://www.w3.org/1999/xlink" width="32" height="32"><path d="M334.12987 788.779221m-187.012987 0a187.012987 187.012987 0 1 0 374.025974 0 187.012987 187.012987 0 1 0-374.025974 0Z" fill="#8a8a8a" p-id="8425"></path><path d="M114.094545 861.779117C114.094545 925.124156 164.987013 975.792208 228.608 975.792208h611.893195c63.617662 0 114.511792-50.673039 114.511792-114.013091V163.883221C955.012987 100.543169 904.118857 49.87013 840.501195 49.87013H230.925299C167.307636 49.87013 116.413506 100.543169 116.413506 163.883221v82.920727H86.336831C77.082597 246.803948 68.987013 254.866286 68.987013 264.075636v50.674702c0 9.212675 8.095584 17.276675 17.349818 17.276675H116.413506v64.493714H86.336831C77.082597 396.520727 68.987013 404.57974 68.987013 413.792416v50.674701c0 9.211013 8.095584 17.271688 17.349818 17.271688H116.413506v62.188052H86.336831C77.082597 543.926857 68.987013 551.995844 68.987013 561.205195v52.972052c0 9.216 8.095584 17.276675 17.349818 17.276675H116.413506v64.492052H86.336831C77.082597 695.945974 68.987013 704.008312 68.987013 713.219325v50.673039c0 9.212675 8.095584 17.278338 17.349818 17.278337H116.413506v54.125715l-2.313974 26.487688-0.004987-0.004987z m94.138182-164.849039H167.433974v-64.432208h40.798753c9.329039 0 17.487792-8.059013 17.487792-17.263376v-50.626494c0-9.202701-8.158753-17.25839-17.487792-17.25839H167.433974v-64.432207h40.798753c9.329039 0 17.487792-8.052364 17.487792-17.256728v-50.63148c0-9.204364-8.158753-17.25839-17.487792-17.25839H167.433974v-64.432208h40.798753c9.329039 0 17.487792-8.054026 17.487792-17.258389v-50.626494c0-9.204364-8.158753-17.261714-17.487792-17.261714H167.433974V164.200727c0-31.069091 24.481247-55.229506 55.949299-55.229506h616.610909c31.474701 0 55.950961 24.165403 55.950961 55.229506v697.260883c0 31.069091-24.47626 55.229506-55.950961 55.229507H223.384935c-31.468052 0-55.949299-24.160416-55.949299-55.229507v-80.540259h40.798754c9.329039 0 17.487792-8.052364 17.487792-17.256728v-47.17548c0-11.505039-8.158753-19.559065-17.487792-19.559065z m162.819325-272.751377h380.342857c25.357299 0 46.10161-21.274597 46.10161-47.28187V235.054545c0-26.002286-20.744312-47.28187-46.103272-47.28187H371.052052c-25.353974 0-46.10161 21.274597-46.10161 47.28187v140.660364c0 27.189195 20.744312 48.463792 46.10161 48.463792z" fill="#8a8a8a" p-id="8426"></path></svg>